<?xml version="1.0" encoding="utf-8"?>
<!-- Generator: Adobe Illustrator 24.0.0, SVG Export Plug-In . SVG Version: 6.00 Build 0)  -->
<svg version="1.1" id="Layer_1" xmlns="http://www.w3.org/2000/svg" xmlns:xlink="http://www.w3.org/1999/xlink" x="0px" y="0px"
	 viewBox="0 0 112 57.88" style="enable-background:new 0 0 112 57.88;" xml:space="preserve">
<style type="text/css">
	.st0{fill:#FFFFFF;}
</style>
<path class="st0" d="M80.6,2.94c0,0,14.9,7.58,10.5,27.16c-1.17,5.19-4.35,8.26-8.4,9.98c-5.07,2.15-10.87,1.62-15.95-0.21
	c-4.23-1.52-11.05-4.48-11.49-9.66c-0.23-2.71,2.33-6.15,5.05-6.05c0.28,2.4,1.83,4.61,4,5.68c1.16,0.57,2.44,0.83,3.7,1.16
	c0.11,1.26-0.18,2.56-0.87,3.63c1.14-0.27,2.35-0.58,3.18-1.42c0.28-0.28,0.47-0.65,0.59-1.03c0.86,0.57,1.56,1.33,1.84,2.31
	c0.49,1.76-1.17,3.46-2.97,3.79c2.39,0.53,4.87,1.06,7.26,0.25c1.27-0.43,2.41-1.27,3.01-2.48c1.28-2.56-0.42-5.1-1.37-7.57
	c-1.45-3.74-1.24-7.89-1.7-11.87c-0.47-3.99-1.94-8.28-5.46-10.21c-0.02,1.27,0.08,2.93,0.06,4.2C67.8,5.56,61.52,2.63,55.25,3.14
	c2.34,0.93,5.07,2.45,7.05,4.01C56.63,5.97,51.21,6.7,45.77,8.69c2.41,0.06,5.15,0.92,7.39,1.78c-7.59,1.09-14.24,5.71-17.98,12.41
	c0.75-0.06,2.35-0.53,3.1-0.58c-1.04,1.3-1.71,2.84-2.14,4.45c1.05-0.88,2.55-2.41,3.61-3.29c-1.95,5.95-2.09,12.46-0.49,18.51
	c-8.1-0.26-16.1-2.92-18.11-11.86c-4.4-19.58,10.5-27.16,10.5-27.16C6.98,8.68-1.72,32.01,6.12,54.5h11.14
	c-3.52-5.38-6.14-11.79-6.14-18.98c0-23.53,13.82-28.77,13.82-28.77s-12.5,7.96-10.78,28c0.68,7.87,4.84,14.54,9.64,19.75h64.63
	c4.8-5.2,8.96-11.87,9.64-19.75c1.72-20.04-10.78-28-10.78-28s13.82,5.23,13.82,28.77c0,7.19-2.62,13.6-6.14,18.98h11.14
	C113.97,32.01,105.27,8.68,80.6,2.94z M74.96,20.33c-0.04,2.16,0.46,4.33,1.44,6.26c-1.33-0.53-2.54-0.94-2.83-2.34
	C73.29,22.84,73.96,21.35,74.96,20.33z"/>
</svg>
